# xmcd
#
# Track frame offsets:
#	150
#	16525
#	27820
#	45780
#	71332
#	86487
#	96202
#	111287
#	125245
#	137545
#	152885
#	166717
#	181085
#	200382
#	218277
#	266050
#	277165
#	300805
#	316202
#
# Disc length: 4432 seconds
#
# Revision: 1
# Processed by: cddbd v1.4PL0 Copyright (c) Steve Scherf et al.
# Submitted via: audiograbber 1.80.04
#
DISCID=ea114e13
DTITLE=Stevie Ray Vaughan - Rough Edges
DYEAR=1990
DGENRE=Blues
TTITLE0=Rude Mood
TTITLE1=Guitar Hurricane
TTITLE2=Pride and Joy
TTITLE3=Texas Flood
TTITLE4=Tell Me
TTITLE5=Love Struck Baby
TTITLE6=You Can Have My Husband
TTITLE7=Ti Na Nina Nina Nu
TTITLE8=Maybe
TTITLE9=Sugar Coated Love
TTITLE10=Oh Yeah Baby's Gone
TTITLE11=In The Open
TTITLE12=Last Night
TTITLE13=Hideaway
TTITLE14=Will My Man Be Home Tonight
TTITLE15=Hip Hip Baby
TTITLE16=Collins Shuffle
TTITLE17=Rough Edges
TTITLE18=Red White and Blue
EXTD=Bootleg
EXTT0=
EXTT1=
EXTT2=
EXTT3=
EXTT4=
EXTT5=
EXTT6=
EXTT7=
EXTT8=
EXTT9=
EXTT10=
EXTT11=
EXTT12=
EXTT13=
EXTT14=
EXTT15=
EXTT16=
EXTT17=
EXTT18=
PLAYORDER=
